<?xml version="1.0" encoding="UTF-8" standalone="no"?>
<!DOCTYPE svg PUBLIC "-//W3C//DTD SVG 1.1//EN" "http://www.w3.org/Graphics/SVG/1.1/DTD/svg11.dtd">
<!-- Создано Microsoft Visio, экспорт SVG Инфорграфика.svg Страница-1 -->
<svg xmlns="http://www.w3.org/2000/svg" xmlns:xlink="http://www.w3.org/1999/xlink" xmlns:ev="http://www.w3.org/2001/xml-events"
		xmlns:v="http://schemas.microsoft.com/visio/2003/SVGExtensions/" width="6.26042in" height="1.28469in"
		viewBox="0 0 450.75 92.4973" xml:space="preserve" color-interpolation-filters="sRGB" class="st12">
	<v:documentProperties v:langID="1049" v:metric="true" v:viewMarkup="false"/>

	<style type="text/css">
	<![CDATA[
		.st1 {fill:none;stroke:none;stroke-linecap:round;stroke-linejoin:round;stroke-width:0.75}
		.st2 {fill:#00b0f0;font-family:Arial;font-size:4.99999em}
		.st3 {fill:#ffffff;stroke:none;stroke-linecap:butt;stroke-width:1.24867}
		.st4 {fill:#00b0f0;stroke:none;stroke-linecap:butt;stroke-width:1.19531}
		.st5 {fill:#00b0f0}
		.st6 {stroke:none;stroke-linecap:butt;stroke-width:1.19531}
		.st7 {fill:#0070c0;stroke:none;stroke-linecap:butt;stroke-width:1.19531}
		.st8 {fill:#7f7f7f;stroke:none;stroke-linecap:butt;stroke-width:1.19531}
		.st9 {fill:#d8d8d8;stroke:none;stroke-linecap:butt;stroke-width:1.19531}
		.st10 {fill:#ffffff;font-family:Arial;font-size:4.99999em;font-weight:bold}
		.st11 {fill:#595959;stroke:none;stroke-linecap:butt;stroke-width:1.19531}
		.st12 {fill:none;fill-rule:evenodd;font-size:12px;overflow:visible;stroke-linecap:square;stroke-miterlimit:3}
	]]>
	</style>

	<g v:mID="0" v:index="1" v:groupContext="foregroundPage">
		<title>Страница-1</title>
		<v:pageProperties v:drawingScale="1" v:pageScale="1" v:drawingUnits="19" v:shadowOffsetX="9" v:shadowOffsetY="-9"/>
		<g id="shape79-1" v:mID="79" v:groupContext="shape" transform="translate(0.375,-1.24867)">
			<title>Лист.79</title>
			<desc>Internet</desc>
			<v:textBlock v:margins="rect(4,4,4,4)"/>
			<v:textRect cx="112.5" cy="47.4973" width="225" height="90"/>
			<rect x="0" y="2.49735" width="225" height="90" class="st1"/>
			<text x="10.77" y="65.5" class="st2" v:langID="1033"><v:paragraph v:horizAlign="1"/><v:tabList/>Internet</text>		</g>
		<g id="shape78-4" v:mID="78" v:groupContext="shape" transform="translate(224.207,-1.24867)">
			<title>Лист.78</title>
			<path d="M87.04 30.27 C80.45 14.27 65.51 3.65 48.52 2.62 C48.22 2.59 47.89 2.59 47.56 2.56 C47.53 2.56 47.47 2.56 47.44
						 2.56 C47.26 2.56 47.07 2.53 46.89 2.53 C46.86 2.53 46.83 2.53 46.8 2.53 C46.47 2.53 46.14 2.5 45.78 2.5
						 C39.91 2.5 34.18 3.65 28.73 5.93 C17.71 10.51 9.13 19.16 4.58 30.27 C0 41.38 0 53.61 4.58 64.69 C11.51 81.57
						 27.71 92.5 45.84 92.5 C46.08 92.5 46.29 92.5 46.53 92.47 C46.65 92.47 46.8 92.5 46.92 92.5 C46.98 92.5 47.04
						 92.5 47.07 92.47 C47.35 92.47 47.59 92.44 47.86 92.44 C47.95 92.44 48.04 92.44 48.16 92.44 C48.25 92.44
						 48.31 92.44 48.4 92.41 C53.37 92.13 58.25 91.01 62.92 89.07 C73.94 84.48 82.52 75.83 87.07 64.72 C91.62
						 53.61 91.65 41.38 87.07 30.3 C87.04 30.3 87.04 30.3 87.04 30.27 C87.04 30.3 87.04 30.3 87.04 30.27 ZM30.24
						 11.85 C26.93 16.19 24.28 21.86 22.53 28.45 L12.08 28.45 C16.14 21.1 22.47 15.31 30.24 11.85 ZM9.37 34.49
						 L21.23 34.49 C20.54 38.59 20.18 42.96 20.18 47.54 C20.18 52.07 20.57 56.47 21.32 60.6 L9.37 60.6 C6.35 52.1
						 6.35 42.96 9.37 34.49 ZM12.08 66.57 L22.71 66.57 C24.58 73.28 27.41 79.08 30.87 83.51 C22.98 80.17 16.32
						 74.28 12.08 66.57 ZM43.91 86.06 C37.68 84.21 32.14 76.68 28.97 66.57 L43.91 66.57 L43.91 86.06 ZM43.91 60.56
						 L27.44 60.56 C26.59 56.44 26.14 52.04 26.14 47.51 C26.14 42.93 26.56 38.53 27.29 34.46 L43.91 34.46 L43.91
						 60.56 ZM43.91 28.48 L28.7 28.48 C31.74 18.04 37.29 10.66 43.91 8.96 L43.91 28.48 ZM79.54 28.45 L71.26 28.45
						 C69.72 22.65 67.52 17.58 64.75 13.52 C70.87 16.98 76.02 22.11 79.54 28.45 ZM49.88 8.93 C56.5 10.66 62.01
						 18.04 65.09 28.45 L49.88 28.45 L49.88 8.93 ZM49.88 34.49 L66.5 34.49 C67.25 38.56 67.65 42.93 67.65 47.54
						 C67.65 52.07 67.19 56.47 66.35 60.6 L49.88 60.6 L49.88 34.49 ZM49.88 86.06 L49.88 66.57 L64.81 66.57 C61.65
						 76.68 56.11 84.21 49.88 86.06 ZM64.15 81.84 C67.07 77.68 69.45 72.46 71.11 66.57 L79.54 66.57 C75.96 73.07
						 70.66 78.32 64.15 81.84 ZM82.25 60.56 L72.46 60.56 C73.22 56.44 73.61 52.07 73.61 47.51 C73.61 42.93 73.25
						 38.56 72.55 34.46 L82.25 34.46 C85.26 42.96 85.26 52.1 82.25 60.56 Z" class="st3"/>
		</g>
		<g id="group80-6" transform="translate(239.757,-43.0473)" v:mID="80" v:groupContext="group">
			<title>Лист.80</title>
			<g id="shape81-7" v:mID="81" v:groupContext="shape">
				<title>Лист.81</title>
				<path d="M10.24 76.23 L0.93 85.62 C0 86.55 0 88.06 0.93 88.99 L4.41 92.5 L17.07 79.74 L13.59 76.23 C12.67 75.3 11.17
							 75.3 10.24 76.23 Z" class="st4"/>
			</g>
			<g id="shape82-9" v:mID="82" v:groupContext="shape" transform="translate(32.2264,-13.805)">
				<title>Лист.82</title>
				<path d="M5.93 87.11 L5.35 86.52 C4.35 85.52 2.74 85.52 1.74 86.52 L0 88.28 L4.19 92.5 L5.93 90.74 C6.93 89.74 6.93
							 88.11 5.93 87.11 Z" class="st4"/>
			</g>
			<g id="shape83-11" v:mID="83" v:groupContext="shape" transform="translate(27.3423,-18.7242)">
				<title>Лист.83</title>
				<path d="M5.93 87.11 L5.35 86.52 C4.35 85.52 2.74 85.52 1.74 86.52 L0 88.28 L4.19 92.5 L5.93 90.74 C6.93 89.74 6.93
							 88.11 5.93 87.11 Z" class="st4"/>
			</g>
			<g id="shape84-13" v:mID="84" v:groupContext="shape" transform="translate(45.7636,-8.59816)">
				<title>Лист.84</title>
				<path d="M0 86.08 L21.45 64.48 C23.2 62.71 26.05 62.71 27.81 64.48 C29.57 66.26 29.57 69.13 27.81 70.9 L6.37 92.5
							 L0 86.08 Z" class="st5"/>
				<path d="M0 86.08 L21.45 64.48 C23.2 62.71 26.05 62.71 27.81 64.48 C29.57 66.26 29.57 69.13 27.81 70.9 L6.37 92.5"
						class="st6"/>
			</g>
		</g>
		<g id="shape85-16" v:mID="85" v:groupContext="shape" transform="translate(285.521,-55.3861)">
			<title>Лист.85</title>
			<path d="M28.85 69.85 C28.63 69.26 28.29 68.7 27.81 68.22 C26.05 66.45 23.2 66.45 21.45 68.22 L0 89.83 L2.65 92.5 L24.1
						 70.9 C25.38 69.6 27.25 69.26 28.85 69.85 Z" class="st7"/>
		</g>
		<g id="shape86-18" v:mID="86" v:groupContext="shape" transform="translate(278.41,-44.4815)">
			<title>Лист.86</title>
			<path d="M14.49 86.08 L6.38 77.91 C5.95 77.48 5.25 77.48 4.83 77.91 L0 82.77 L9.66 92.5 L14.49 87.64 C14.91 87.2 14.91
						 86.51 14.49 86.08 Z" class="st4"/>
		</g>
		<g id="shape87-20" v:mID="87" v:groupContext="shape" transform="translate(278.41,-50.5198)">
			<title>Лист.87</title>
			<path d="M9.27 86.86 L6.38 83.94 C5.95 83.51 5.25 83.51 4.83 83.94 L0 88.81 L3.66 92.5 L9.27 86.86 Z" class="st7"/>
		</g>
		<g id="shape88-22" v:mID="88" v:groupContext="shape" transform="translate(227.587,-4.58237)">
			<title>Лист.88</title>
			<path d="M61.82 55.9 L25.48 92.5 C24.66 92.16 23.84 91.79 23.04 91.4 C13.05 86.56 5.12 78.08 0.95 67.68 C0.61 66.82 0.29
						 65.95 0 65.07 L35.46 29.35 C36.45 28.36 38.04 28.36 39.02 29.35 L61.82 52.31 C62.8 53.3 62.8 54.91 61.82
						 55.9 Z" class="st8"/>
		</g>
		<g id="shape89-24" v:mID="89" v:groupContext="shape" transform="translate(228.538,-5.67889)">
			<title>Лист.89</title>
			<path d="M59.05 55.2 C59.05 55.27 59.01 55.3 59 55.31 L22.08 92.5 C12.1 87.65 4.17 79.18 0 68.77 L36.18 32.33 C36.19
						 32.32 36.23 32.28 36.29 32.28 C36.35 32.28 36.39 32.32 36.4 32.33 L59 55.09 C59.01 55.11 59.05 55.14 59.05
						 55.2 Z" class="st9"/>
		</g>
		<g id="shape90-26" v:mID="90" v:groupContext="shape" transform="translate(315.375,-1.24867)">
			<title>Лист.90</title>
			<desc>PTT</desc>
			<v:textBlock v:margins="rect(4,4,4,4)"/>
			<v:textRect cx="67.5" cy="47.4973" width="135" height="90"/>
			<rect x="0" y="2.49735" width="135" height="90" class="st1"/>
			<text x="10.84" y="65.5" class="st10" v:langID="1033"><v:paragraph v:horizAlign="1"/><v:tabList/>PTT</text>		</g>
		<g id="shape91-29" v:mID="91" v:groupContext="shape" transform="translate(238.875,-16.0889)">
			<title>Лист.91</title>
			<path d="M42.08 67.58 L17.35 92.5 C16.78 92.26 16.23 92.02 15.68 91.75 C8.88 88.45 3.49 82.68 0.65 75.6 C0.41 75.02 0.2
						 74.43 0 73.83 L24.14 49.51 C24.81 48.84 25.89 48.84 26.56 49.51 L42.08 65.14 C42.75 65.82 42.75 66.91 42.08
						 67.58 Z" class="st11"/>
		</g>
	</g>
</svg>
